<svg xmlns="http://www.w3.org/2000/svg" xmlns:xlink="http://www.w3.org/1999/xlink" viewBox="0 0 400 200"><defs><filter id="AI_GaussianBlur_4" name="AI_GaussianBlur_4"><feGaussianBlur stdDeviation="4"/></filter><radialGradient id="radial-gradient" cx="202" cy="125.93" r="121.73" gradientTransform="translate(0 -25.19) scale(1 1.2)" gradientUnits="userSpaceOnUse"><stop offset="0" stop-color="#ededed"/><stop offset="0.18" stop-color="#e3e3e3"/><stop offset="0.47" stop-color="#dbdbdb"/><stop offset="1" stop-color="#d9d9d9"/></radialGradient><radialGradient id="radial-gradient-2" cx="202.18" cy="25" r="7.58" gradientUnits="userSpaceOnUse"><stop offset="0" stop-color="#ededed"/><stop offset="1" stop-color="#c7c7c7"/></radialGradient></defs><title>Artboard 1</title><g id="bg"><rect id="bg-2" data-name="bg" width="400" height="200" style="fill:#eee;opacity:0"/></g><g id="coverSVG"><g id="card"><g style="opacity:0.3;filter:url(#AI_GaussianBlur_4)"><path d="M359.47,200H44.53V53.92a2.07,2.07,0,0,1,2.07-2.07H357.4a2.07,2.07,0,0,1,2.07,2.07Z"/></g><path id="cardFront" d="M48.27,52.65H355.73a2,2,0,0,1,2,2V199.2a0,0,0,0,1,0,0H46.22a0,0,0,0,1,0,0V54.7a2,2,0,0,1,2-2Z" style="fill:url(#radial-gradient)"/></g></g><g id="content"><polygon points="171 110.17 235.5 200 106.5 200 171 110.17" style="fill:#042796"/><polygon points="119.28 76.26 190.72 200 47.84 200 119.28 76.26" style="fill:#092dc6"/><polygon points="220.28 126.7 291.72 200 148.84 200 220.28 126.7" style="fill:#364dd6"/></g><g id="logo"><path d="M208.64,29.48l-5.82,3.36a1.29,1.29,0,0,1-1.29,0l-5.82-3.36a1.29,1.29,0,0,1-.65-1.12V21.64a1.29,1.29,0,0,1,.65-1.12l5.82-3.36a1.29,1.29,0,0,1,1.29,0l5.82,3.36a1.29,1.29,0,0,1,.65,1.12v6.72A1.29,1.29,0,0,1,208.64,29.48Z" style="fill:url(#radial-gradient-2)"/><polygon points="189.68 26.08 56.67 25.58 189.68 25.08 189.68 26.08" style="fill:#ccc"/><polygon points="214.67 25.08 347.68 25.58 214.67 26.08 214.67 25.08" style="fill:#ccc"/><text transform="translate(199.17 28.61)" style="font-size:9.222108840942383px;fill:#fff;font-family:OCRAStd, OCR A Std">1</text></g></svg>